<?xml version="1.0" encoding="UTF-8"?>
<svg id="Ebene_1" xmlns="http://www.w3.org/2000/svg" version="1.1" viewBox="0 0 1771.21 408.31">
  <!-- Generator: Adobe Illustrator 29.5.1, SVG Export Plug-In . SVG Version: 2.1.0 Build 141)  -->
  <defs>
    <style>
      .st0 {
        fill: #7c938e;
      }

      .st1 {
        fill: #51b047;
      }

      .st2 {
        fill: #3973b9;
      }
    </style>
  </defs>
  <g>
    <path class="st1" d="M1771.21,83.51v-46.39h0V0h-498.14c-20.44,0-36.99,16.56-36.99,36.99v.13h0v46.39h535.14Z"/>
    <polygon class="st1" points="1236.07 104.95 1236.07 129.92 1236.07 176.32 1236.07 193.43 1386.31 193.43 1386.31 176.32 1386.31 129.92 1386.31 104.95 1236.07 104.95"/>
    <polygon class="st1" points="1236.07 214.88 1236.07 222.72 1236.07 269.11 1236.07 303.36 1386.31 303.36 1386.31 269.11 1386.31 222.72 1386.31 214.88 1236.07 214.88"/>
    <path class="st1" d="M1236.07,324.8v46.39h0v.13c0,20.43,16.56,36.99,36.99,36.99h498.14v-37.12h0v-46.39h-535.14Z"/>
  </g>
  <g>
    <polygon class="st2" points="876.53 104.95 876.53 139.2 876.53 176.32 876.53 193.43 1026.77 193.43 1026.77 176.32 1026.77 139.2 1026.77 104.95 876.53 104.95"/>
    <polyline class="st2" points="1214.58 83.51 1214.58 46.4 1214.58 0 752.42 0 712.82 83.51"/>
    <polygon class="st2" points="876.53 214.88 876.53 231.99 876.53 269.11 876.53 303.36 1026.77 303.36 1026.77 269.11 1026.77 231.99 1026.77 214.88 876.53 214.88"/>
    <polygon class="st2" points="876.53 324.8 876.53 371.19 876.53 408.31 1026.77 408.31 1026.77 371.19 1026.77 324.8 876.53 324.8"/>
  </g>
  <g>
    <polygon class="st0" points="237.6 185.6 215.75 139.2 199.36 104.95 49.12 104.95 65.51 139.2 87.35 185.6 91.04 193.43 241.28 193.43 237.6 185.6"/>
    <polygon class="st0" points="477.33 214.88 469.28 231.99 459.29 253.22 449.3 231.99 441.25 214.88 287.46 214.88 279.41 231.99 269.42 253.22 259.43 231.99 251.37 214.88 101.13 214.88 109.18 231.99 130.66 278.39 142.41 303.36 585.57 303.36 597.32 278.39 619.52 231.99 627.58 214.88 477.33 214.88"/>
    <polygon class="st0" points="528.81 104.95 512.95 139.2 512.96 139.2 491.12 185.6 491.11 185.6 487.42 193.43 637.67 193.43 641.36 185.6 663.19 139.2 679.04 104.95 528.81 104.95"/>
    <polygon class="st0" points="538.87 83.51 689.11 83.51 706.87 46.4 728.71 0 578.46 0 556.62 46.4 556.63 46.4 538.87 83.51"/>
    <polygon class="st0" points="228.88 83.51 499.24 83.51 516.99 46.4 538.84 0 388.59 0 366.76 46.4 364.35 51.51 361.95 46.4 340.11 0 189.87 0 211.72 46.4 228.88 83.51"/>
    <polygon class="st0" points="152.5 324.8 174.7 371.19 192.17 408.31 196.42 408.31 342.41 408.31 342.41 408.31 364.14 361.19 364.58 361.19 386.3 408.31 386.3 408.31 532.28 408.31 536.54 408.31 554.01 371.19 575.48 324.8 152.5 324.8"/>
    <polygon class="st0" points="39 83.51 189.25 83.51 172.08 46.4 150.24 0 0 0 21.84 46.4 39 83.51"/>
    <polygon class="st0" points="238.9 104.95 250.65 129.92 272.85 176.31 280.91 193.43 447.8 193.43 455.85 176.31 477.32 129.92 489.07 104.95 238.9 104.95"/>
  </g>
</svg>